<?xml version="1.0" encoding="utf-8"?>
<svg version="1.1" id="Layer_1" xmlns="http://www.w3.org/2000/svg" xmlns:xlink="http://www.w3.org/1999/xlink" x="0px" y="0px"
	 viewBox="0 0 800 600" style="enable-background:new 0 0 800 600;" xml:space="preserve">
<path fill="#FF9900" d="M600,300.2v-9.9c0-3.7-1.4-6.9-4.1-9.6c-2.7-2.7-5.9-4.1-9.6-4.1h-9.9c-3.7,0-6.9,1.4-9.6,4.1
	c-2.7,2.7-4.1,5.9-4.1,9.6v9.9c0,3.7,1.4,6.9,4.1,9.6c2.7,2.7,5.9,4.1,9.6,4.1h9.9c3.7,0,6.9-1.4,9.6-4.1
	C598.6,307.1,600,303.9,600,300.2z"/>
<path fill="#FF9900" d="M400,300.2v-9.9c0-3.7-1.4-6.9-4.1-9.6c-2.7-2.7-5.9-4.1-9.6-4.1h-9.9c-3.7,0-6.9,1.4-9.6,4.1
	c-2.7,2.7-4.1,5.9-4.1,9.6v9.9c0,3.7,1.4,6.9,4.1,9.6c2.7,2.7,5.9,4.1,9.6,4.1h9.9c3.7,0,6.9-1.4,9.6-4.1
	C398.6,307.1,400,303.9,400,300.2z"/>
<path fill="#FF9900" d="M500,300.2v-9.9c0-3.7-1.4-6.9-4.1-9.6c-2.7-2.7-5.9-4.1-9.6-4.1h-9.9c-3.7,0-6.9,1.4-9.6,4.1
	c-2.7,2.7-4.1,5.9-4.1,9.6v9.9c0,3.7,1.4,6.9,4.1,9.6c2.7,2.7,5.9,4.1,9.6,4.1h9.9c3.7,0,6.9-1.4,9.6-4.1
	C498.6,307.1,500,303.9,500,300.2z"/>
<path fill="#FF9900" d="M300,300.2v-9.9c0-3.7-1.4-6.9-4.1-9.6c-2.7-2.7-5.9-4.1-9.6-4.1h-9.9c-3.7,0-6.9,1.4-9.6,4.1
	c-2.7,2.7-4.1,5.9-4.1,9.6v9.9c0,3.7,1.4,6.9,4.1,9.6c2.7,2.7,5.9,4.1,9.6,4.1h9.9c3.7,0,6.9-1.4,9.6-4.1
	C298.6,307.1,300,303.9,300,300.2z"/>
<path fill="#FF9900" d="M200,300.2v-9.9c0-3.7-1.4-6.9-4.1-9.6c-2.7-2.7-5.9-4.1-9.6-4.1h-9.9c-3.7,0-6.9,1.4-9.6,4.1
	c-2.7,2.7-4.1,5.9-4.1,9.6v9.9c0,3.7,1.4,6.9,4.1,9.6c2.7,2.7,5.9,4.1,9.6,4.1h9.9c3.7,0,6.9-1.4,9.6-4.1
	C198.6,307.1,200,303.9,200,300.2z"/>
<path fill="#FF9900" d="M100,300.2v-9.9c0-3.7-1.4-6.9-4.1-9.6C93.2,278,90,276.6,86.3,276.6h-9.9c-3.7,0-6.9,1.4-9.6,4.1
	c-2.7,2.7-4.1,5.9-4.1,9.6v9.9c0,3.7,1.4,6.9,4.1,9.6c2.7,2.7,5.9,4.1,9.6,4.1h9.9c3.7,0,6.9-1.4,9.6-4.1
	C98.6,307.1,100,303.9,100,300.2z"/>
</svg>
